HIERARCHY
ROOT Hips
{
	OFFSET -13.091600 -28.302996 44.698402
	CHANNELS 6 Xposition Yposition Zposition Zrotation Xrotation Yrotation
	JOINT Chest
	{
		OFFSET -0.673000 0.623899 5.369202
		CHANNELS 6 Xposition Yposition Zposition Zrotation Xrotation Yrotation
		JOINT Chest2
		{
			OFFSET 0.000000 0.000000 4.415001
			CHANNELS 6 Xposition Yposition Zposition Zrotation Xrotation Yrotation
			JOINT Neck
			{
				OFFSET 0.000000 0.000002 10.273300
				CHANNELS 6 Xposition Yposition Zposition Zrotation Xrotation Yrotation
				JOINT Head
				{
					OFFSET 0.000000 0.000000 2.173897
					CHANNELS 6 Xposition Yposition Zposition Zrotation Xrotation Yrotation
					End Site
					{
						OFFSET 0.000000 0.000000 9.961800
					}
				}
			}
			JOINT LeftCollar
			{
				OFFSET 2.359900 -0.565201 5.928101
				CHANNELS 6 Xposition Yposition Zposition Zrotation Xrotation Yrotation
				JOINT LeftShoulder
				{
					OFFSET 5.443700 0.000000 0.000000
					CHANNELS 6 Xposition Yposition Zposition Zrotation Xrotation Yrotation
					JOINT LeftElbow
					{
						OFFSET 0.000000 0.000000 -10.615799
						CHANNELS 6 Xposition Yposition Zposition Zrotation Xrotation Yrotation
						JOINT LeftWrist
						{
							OFFSET 0.000000 -0.000002 -13.110302
							CHANNELS 6 Xposition Yposition Zposition Zrotation Xrotation Yrotation
							End Site
							{
								OFFSET 0.000000 0.000000 -2.173901
							}
						}
					}
				}
			}
			JOINT RightCollar
			{
				OFFSET -2.636600 -1.718800 6.889698
				CHANNELS 6 Xposition Yposition Zposition Zrotation Xrotation Yrotation
				JOINT RightShoulder
				{
					OFFSET -4.139101 0.000000 0.000000
					CHANNELS 6 Xposition Yposition Zposition Zrotation Xrotation Yrotation
					JOINT RightElbow
					{
						OFFSET 0.000000 0.000000 -10.471802
						CHANNELS 6 Xposition Yposition Zposition Zrotation Xrotation Yrotation
						JOINT RightWrist
						{
							OFFSET 0.000000 0.000000 -12.281898
							CHANNELS 6 Xposition Yposition Zposition Zrotation Xrotation Yrotation
							End Site
							{
								OFFSET 0.000000 -0.000002 -2.173901
							}
						}
					}
				}
			}
		}
	}
	JOINT LeftHip
	{
		OFFSET 2.273400 0.176701 -2.518002
		CHANNELS 6 Xposition Yposition Zposition Zrotation Xrotation Yrotation
		JOINT LeftKnee
		{
			OFFSET 0.000000 -0.000002 -20.456402
			CHANNELS 6 Xposition Yposition Zposition Zrotation Xrotation Yrotation
			JOINT LeftAnkle
			{
				OFFSET 0.000000 -0.000002 -16.635300
				CHANNELS 6 Xposition Yposition Zposition Zrotation Xrotation Yrotation
				End Site
				{
					OFFSET 0.000000 -8.812399 0.000001
				}
			}
		}
	}
	JOINT RightHip
	{
		OFFSET -1.914800 0.018101 -2.699299
		CHANNELS 6 Xposition Yposition Zposition Zrotation Xrotation Yrotation
		JOINT RightKnee
		{
			OFFSET 0.000000 -0.000002 -20.148901
			CHANNELS 6 Xposition Yposition Zposition Zrotation Xrotation Yrotation
			JOINT RightAnkle
			{
				OFFSET 0.000000 -0.000002 -16.838301
				CHANNELS 6 Xposition Yposition Zposition Zrotation Xrotation Yrotation
				End Site
				{
					OFFSET 0.000000 -8.328398 0.000001
				}
			}
		}
	}
}
MOTION
Frames: 5
Frame Time: 0.041667
-12.216102 -2.231497 45.530106 3431.506929 -13.531209 1.369627 -0.673003 0.623899 5.369203 -11.216195 5.489334 0.176316 0.000004 -0.000001 4.415004 14.053185 3.129636 1.693049 -0.000004 -0.000002 10.273300 -15.202007 27.980234 5.465554 -0.000002 -0.000003 2.173902 -1.455881 1.713528 -1.521494 2.359897 -0.565203 5.928096 10.846861 -2.942487 -24.703102 5.443694 0.000005 0.000005 -85.722269 321.823023 -106.282941 0.000003 -0.000001 -10.615790 627.213649 -136.535167 215.855575 -0.000008 -0.000002 -13.110300 -1999.180852 197.510260 -531.794649 -2.636600 -1.718804 6.889705 188.176561 -184.260390 211.178630 -4.139096 -0.000002 -0.000005 63.026137 -104.043951 481.757284 -0.000001 -0.000003 -10.471793 -48.531902 -47.232155 -422.424442 0.000001 -0.000000 -12.281900 14.401034 -10.382295 22.496842 2.273400 0.176701 -2.518005 -524.113801 -174.942059 -191.938629 -0.000002 -0.000001 -20.456402 889.591268 153.196061 -182.984279 -0.000002 -0.000001 -16.635298 -371.181795 23.041425 1.075654 -1.914798 0.018099 -2.699296 256.201133 143.023724 163.551434 0.000001 0.000001 -20.148901 -937.834041 -183.503482 161.354149 -0.000001 -0.000001 -16.838303 1050.154590 65.923538 -45.922145
-12.230903 -2.179394 45.548599 3431.208586 -13.431322 1.323978 -0.673005 0.623901 5.369200 -10.929276 5.162232 0.251621 0.000002 0.000003 4.415001 13.722827 3.019279 1.641137 -0.000002 0.000001 10.273304 -14.834467 27.335119 5.217011 -0.000001 -0.000005 2.173903 -1.430329 1.652635 -1.507809 2.359900 -0.565202 5.928104 10.981707 -3.150466 -24.490917 5.443700 0.000005 0.000006 -85.494735 322.461564 -107.226436 0.000001 0.000005 -10.615794 626.682861 -136.951276 215.318517 -0.000003 -0.000004 -13.110306 -2000.388866 197.167002 -532.449473 -2.636599 -1.718803 6.889709 187.996367 -184.427825 211.306204 -4.139098 0.000006 0.000002 60.727765 -102.589626 479.862317 -0.000005 -0.000003 -10.471801 -45.910257 -48.936571 -419.261928 0.000002 -0.000000 -12.281897 12.294346 -10.451358 22.141554 2.273397 0.176703 -2.518006 -524.170737 -175.069346 -191.942468 -0.000000 -0.000004 -20.456396 889.363522 153.194846 -182.903983 -0.000003 0.000001 -16.635298 -370.668793 22.839164 1.357795 -1.914800 0.018100 -2.699304 255.588766 142.945191 164.039328 -0.000000 -0.000001 -20.148901 -937.246645 -183.491693 161.535135 -0.000001 -0.000002 -16.838303 1050.053721 65.951036 -45.883339
-12.244703 -2.135494 45.566303 3431.077665 -13.218422 1.287492 -0.672998 0.623898 5.369218 -10.807244 4.677779 0.329811 0.000003 0.000000 4.415005 13.536945 2.972994 1.620446 -0.000001 0.000003 10.273303 -14.336296 26.780950 4.692967 -0.000000 -0.000000 2.173901 -1.648591 1.506509 -1.374469 2.359900 -0.565204 5.928107 11.121961 -3.216675 -24.396295 5.443701 0.000004 0.000002 -85.536645 322.895991 -108.415149 -0.000005 0.000003 -10.615799 626.102022 -137.467748 214.834339 -0.000006 -0.000006 -13.110284 -2001.623983 197.078688 -533.207952 -2.636600 -1.718805 6.889703 187.782951 -184.243492 211.529114 -4.139098 -0.000003 0.000000 59.642236 -101.219374 479.221809 -0.000002 0.000005 -10.471804 -45.033582 -47.905489 -417.622956 0.000000 -0.000002 -12.281901 13.498163 -10.730041 21.854165 2.273402 0.176704 -2.517995 -524.332312 -175.082597 -191.884302 -0.000000 -0.000002 -20.456396 888.916336 153.215965 -182.712574 -0.000002 0.000002 -16.635300 -369.922526 22.693899 1.449044 -1.914798 0.018100 -2.699290 254.663166 142.887653 164.717730 0.000003 -0.000004 -20.148905 -936.989502 -183.603422 161.722473 -0.000002 -0.000001 -16.838305 1050.006183 66.177928 -45.064850
-12.258103 -2.095392 45.587505 3430.915489 -12.955206 1.243038 -0.672997 0.623901 5.369208 -10.656038 4.175907 0.397146 0.000003 0.000003 4.415006 13.325356 2.922927 1.585940 -0.000002 -0.000000 10.273310 -14.467360 26.058971 4.657132 -0.000001 -0.000002 2.173898 -1.444501 1.392900 -1.378333 2.359900 -0.565203 5.928102 11.253514 -3.372846 -24.500886 5.443699 0.000006 0.000004 -85.491948 322.777009 -109.390691 0.000003 0.000001 -10.615801 625.418675 -137.893105 214.544889 -0.000005 -0.000002 -13.110290 -2003.193943 196.843962 -533.357834 -2.636599 -1.718804 6.889699 187.561175 -184.340003 211.682480 -4.139101 -0.000003 -0.000005 58.328333 -99.800074 478.321645 -0.000006 0.000006 -10.471799 -44.358244 -47.439994 -416.091081 -0.000001 -0.000002 -12.281904 14.355613 -11.043332 21.727243 2.273404 0.176704 -2.517996 -524.510553 -175.062721 -191.831750 0.000001 -0.000001 -20.456402 888.476144 153.250689 -182.472383 0.000002 0.000002 -16.635298 -369.160742 22.548464 1.541781 -1.914796 0.018098 -2.699295 253.948756 142.896997 165.348744 0.000000 -0.000001 -20.148903 -936.615317 -183.671396 161.887832 -0.000003 -0.000001 -16.838306 1049.861492 66.332789 -44.550595
-12.270600 -2.058792 45.604607 3430.648620 -12.642842 1.182942 -0.672999 0.623900 5.369200 -10.401258 3.625111 0.430271 0.000003 -0.000001 4.415013 13.065844 2.883231 1.546316 -0.000004 0.000000 10.273309 -14.561169 25.361899 4.620437 -0.000001 -0.000006 2.173902 -1.329976 1.095294 -1.428515 2.359898 -0.565201 5.928099 11.388595 -3.645251 -24.500689 5.443701 -0.000001 0.000006 -85.316385 323.254931 -110.184502 -0.000005 0.000004 -10.615794 625.178143 -138.426010 214.137181 -0.000003 -0.000003 -13.110293 -2004.563260 196.754951 -533.857640 -2.636602 -1.718803 6.889706 187.371227 -184.444792 211.836213 -4.139100 0.000006 0.000006 55.483191 -98.193614 476.047902 -0.000002 -0.000002 -10.471794 -43.681119 -46.510928 -414.478009 0.000000 -0.000003 -12.281900 15.621071 -11.394706 21.465579 2.273398 0.176701 -2.518000 -524.567216 -174.978655 -191.762356 0.000005 -0.000001 -20.456398 888.117258 153.295728 -182.290359 -0.000000 0.000001 -16.635300 -368.508185 22.414015 1.654069 -1.914800 0.018099 -2.699299 252.377102 142.879033 166.592712 0.000001 -0.000002 -20.148901 -936.314898 -184.077054 162.186872 -0.000002 -0.000004 -16.838306 1050.016019 66.806975 -42.778557
